<svg width="128" height="128" viewBox="0 0 128 128" fill="none" xmlns="http://www.w3.org/2000/svg">
  <rect width="128" height="128" rx="26" fill="#F5F5F5"/>
  <path d="M105.737 23.5L68.2927 51.9073L74.9659 35.2683L105.737 23.5Z" fill="#E17726"/>
  <path d="M22.2634 23.5L59.3707 52.1512L53.0341 35.2683L22.2634 23.5Z" fill="#E27625"/>
  <path d="M92.4878 82.8293L82.5854 97.9024L103.663 103.317L109.244 83.1512L92.4878 82.8293Z" fill="#E27625"/>
  <path d="M18.7805 83.1512L24.3366 103.317L45.4146 97.9024L35.5122 82.8293L18.7805 83.1512Z" fill="#E27625"/>
  <path d="M44.1829 56.4634L38.7561 64.5L59.639 65.4878L58.9512 42.9146L44.1829 56.4634Z" fill="#E27625"/>
  <path d="M83.8171 56.4634L68.8293 42.6829L68.2927 65.4878L89.1512 64.5L83.8171 56.4634Z" fill="#E27625"/>
  <path d="M45.4146 97.9024L58.4756 91.5659L47.1707 83.2927L45.4146 97.9024Z" fill="#E27625"/>
  <path d="M69.5244 91.5659L82.5854 97.9024L80.8293 83.2927L69.5244 91.5659Z" fill="#E27625"/>
  <path d="M82.5854 97.9024L69.5244 91.5659L70.5854 100.166L70.4634 103.073L82.5854 97.9024Z" fill="#D5BFB2"/>
  <path d="M45.4146 97.9024L57.5366 103.073L57.439 100.166L58.4756 91.5659L45.4146 97.9024Z" fill="#D5BFB2"/>
  <path d="M57.7073 76.6585L46.8293 73.4878L54.4634 69.9512L57.7073 76.6585Z" fill="#233447"/>
  <path d="M70.2927 76.6585L73.5366 69.9512L81.1951 73.4878L70.2927 76.6585Z" fill="#233447"/>
  <path d="M45.4146 97.9024L47.2439 82.8293L35.5122 83.1512L45.4146 97.9024Z" fill="#CC6228"/>
  <path d="M80.7561 82.8293L82.5854 97.9024L92.4878 83.1512L80.7561 82.8293Z" fill="#CC6228"/>
  <path d="M89.1512 64.5L68.2927 65.4878L70.2927 76.6585L73.5366 69.9512L81.1951 73.4878L89.1512 64.5Z" fill="#CC6228"/>
  <path d="M46.8293 73.4878L54.4634 69.9512L57.7073 76.6585L59.639 65.4878L38.7561 64.5L46.8293 73.4878Z" fill="#CC6228"/>
  <path d="M38.7561 64.5L47.1707 83.2927L46.8293 73.4878L38.7561 64.5Z" fill="#E27625"/>
  <path d="M81.1951 73.4878L80.8293 83.2927L89.1512 64.5L81.1951 73.4878Z" fill="#E27625"/>
  <path d="M59.639 65.4878L57.7073 76.6585L60.1463 89.3902L60.7073 72.2683L59.639 65.4878Z" fill="#E27625"/>
  <path d="M68.2927 65.4878L67.2683 72.2439L67.8537 89.3902L70.2927 76.6585L68.2927 65.4878Z" fill="#E27625"/>
  <path d="M70.2927 76.6585L67.8537 89.3902L69.5244 91.5659L80.8293 83.2927L81.1951 73.4878L70.2927 76.6585Z" fill="#F5841F"/>
  <path d="M46.8293 73.4878L47.1707 83.2927L58.4756 91.5659L60.1463 89.3902L57.7073 76.6585L46.8293 73.4878Z" fill="#F5841F"/>
  <path d="M70.4634 103.073L70.5854 100.166L69.6219 99.3415H58.378L57.439 100.166L57.5366 103.073L45.4146 97.9024L49.6829 101.366L58.2561 107.361H69.7439L78.3171 101.366L82.5854 97.9024L70.4634 103.073Z" fill="#C0AC9D"/>
  <path d="M69.5244 91.5659L67.8537 89.3902H60.1463L58.4756 91.5659L57.439 100.166L58.378 99.3415H69.6219L70.5854 100.166L69.5244 91.5659Z" fill="#161616"/>
  <path d="M107.22 54.0732L110 41.5L105.737 23.5L69.5244 50.5488L83.8171 56.4634L103.322 62.1463L107.415 57.439L105.639 56.1463L108.439 53.6098L106.273 51.9756L109.073 49.8293L107.22 54.0732Z" fill="#763E1A"/>
  <path d="M18 41.5L20.7805 54.0732L18.878 49.8293L21.678 51.9756L19.5122 53.6098L22.3122 56.1463L20.5366 57.439L24.6293 62.1463L44.1829 56.4634L58.4756 50.5488L22.2634 23.5L18 41.5Z" fill="#763E1A"/>
  <path d="M103.322 62.1463L83.8171 56.4634L89.1512 64.5L80.8293 83.2927L92.4878 83.1512H109.244L103.322 62.1463Z" fill="#F5841F"/>
  <path d="M44.1829 56.4634L24.6293 62.1463L18.7805 83.1512H35.5122L47.1707 83.2927L38.7561 64.5L44.1829 56.4634Z" fill="#F5841F"/>
  <path d="M68.2927 65.4878L69.5244 50.5488L74.9659 35.2683H53.0341L58.4756 50.5488L59.639 65.4878L60.1024 72.2927L60.1463 89.3902H67.8537L67.878 72.2927L68.2927 65.4878Z" fill="#F5841F"/>
</svg>