<svg xmlns="http://www.w3.org/2000/svg" viewBox="0 0 128 128" fill="none">
  <rect width="128" height="128" rx="26" fill="#000"/>
  <path d="M48.5 38.5h-10c-1.1 0-2 .9-2 2v10c0 1.1.9 2 2 2h10c1.1 0 2-.9 2-2v-10c0-1.1-.9-2-2-2zm21 0h-10c-1.1 0-2 .9-2 2v10c0 1.1.9 2 2 2h10c1.1 0 2-.9 2-2v-10c0-1.1-.9-2-2-2zm21 0h-10c-1.1 0-2 .9-2 2v10c0 1.1.9 2 2 2h10c1.1 0 2-.9 2-2v-10c0-1.1-.9-2-2-2zm-42 21h-10c-1.1 0-2 .9-2 2v10c0 1.1.9 2 2 2h10c1.1 0 2-.9 2-2v-10c0-1.1-.9-2-2-2zm21 0h-10c-1.1 0-2 .9-2 2v10c0 1.1.9 2 2 2h10c1.1 0 2-.9 2-2v-10c0-1.1-.9-2-2-2zm21 0h-10c-1.1 0-2 .9-2 2v10c0 1.1.9 2 2 2h10c1.1 0 2-.9 2-2v-10c0-1.1-.9-2-2-2zm-42 21h-10c-1.1 0-2 .9-2 2v10c0 1.1.9 2 2 2h10c1.1 0 2-.9 2-2v-10c0-1.1-.9-2-2-2zm21 0h-10c-1.1 0-2 .9-2 2v10c0 1.1.9 2 2 2h10c1.1 0 2-.9 2-2v-10c0-1.1-.9-2-2-2zm21 0h-10c-1.1 0-2 .9-2 2v10c0 1.1.9 2 2 2h10c1.1 0 2-.9 2-2v-10c0-1.1-.9-2-2-2z" fill="#fff"/>
</svg>