<svg width="128" height="128" viewBox="0 0 128 128" fill="none" xmlns="http://www.w3.org/2000/svg">
  <rect width="128" height="128" rx="26" fill="url(#phantom_grad)"/>
  <path d="M110.584 64.9142H99.142C99.142 41.7651 80.173 23 56.7724 23C33.6612 23 14.8716 41.3057 14.4118 64.0583C13.936 87.5709 34.8759 107 58.6024 107H63.0938C83.5747 107 110.584 88.5061 110.584 64.9142ZM39.7327 66.5751C39.7327 69.8469 37.0665 72.4991 33.7771 72.4991C30.4877 72.4991 27.8215 69.8469 27.8215 66.5751C27.8215 63.3033 30.4877 60.6511 33.7771 60.6511C37.0825 60.6511 39.7327 63.3033 39.7327 66.5751ZM61.5037 66.5751C61.5037 69.8469 58.8375 72.4991 55.5481 72.4991C52.2587 72.4991 49.5765 69.8469 49.5765 66.5751C49.5765 63.3033 52.2427 60.6511 55.5481 60.6511C58.8375 60.6511 61.5037 63.3033 61.5037 66.5751Z" fill="#FFFDF8"/>
  <defs>
    <linearGradient id="phantom_grad" x1="64" y1="0" x2="64" y2="128" gradientUnits="userSpaceOnUse">
      <stop stop-color="#534BB1"/>
      <stop offset="1" stop-color="#551BF9"/>
    </linearGradient>
  </defs>
</svg>