<svg xmlns="http://www.w3.org/2000/svg" viewBox="0 0 480 480" fill="none">
  <rect width="480" height="480" rx="240" fill="#3B99FC"/>
  <path d="M141.1 176.6c54.7-53.5 143.4-53.5 198.1 0l6.6 6.4c2.7 2.7 2.7 7 0 9.7l-22.6 22.1c-1.4 1.3-3.6 1.3-4.9 0l-9.1-8.9c-38.2-37.3-100-37.3-138.2 0l-9.7 9.5c-1.4 1.3-3.6 1.3-4.9 0l-22.6-22.1c-2.7-2.7-2.7-7 0-9.7l6.3-7zm244.8 45.6l20.1 19.7c2.7 2.7 2.7 7 0 9.7l-90.8 88.8c-2.7 2.7-7.2 2.7-9.9 0l-64.4-63c-.7-.7-1.8-.7-2.5 0l-64.4 63c-2.7 2.7-7.2 2.7-9.9 0l-90.8-88.8c-2.7-2.7-2.7-7 0-9.7l20.1-19.7c2.7-2.7 7.2-2.7 9.9 0l64.4 63c.7.7 1.8.7 2.5 0l64.4-63c2.7-2.7 7.2-2.7 9.9 0l64.4 63c.7.7 1.8.7 2.5 0l64.4-63c2.7-2.7 7.2-2.7 9.9 0z" fill="#fff"/>
</svg>